<svg width="934" height="1264" viewBox="0 0 934 1264" fill="none" xmlns="http://www.w3.org/2000/svg">
<path d="M903 71V149C903 184.346 874.346 213 839 213H94C58.6538 213 30 241.654 30 277V419.5C30 454.846 58.6538 483.5 94 483.5H839C874.346 483.5 903 512.154 903 547.5V690C903 725.346 874.346 754 839 754H94C58.6538 754 30 782.654 30 818V961C30 996.346 58.6538 1025 94 1025H839C874.346 1025 903 1053.65 903 1089V1156.5" stroke="#6366F1" stroke-opacity="0.13" stroke-width="6"/>
<path d="M903 71V149C903 184.346 874.346 213 839 213H94C58.6538 213 30 241.654 30 277V419.5C30 454.846 58.6538 483.5 94 483.5H839C874.346 483.5 903 512.154 903 547.5V690C903 725.346 874.346 754 839 754H691" stroke="#6366F1" stroke-width="8"/>
</svg>
